<?xml version="1.0" standalone="no"?>
<!DOCTYPE svg PUBLIC "-//W3C//DTD SVG 20010904//EN"
 "http://www.w3.org/TR/2001/REC-SVG-20010904/DTD/svg10.dtd">
<svg version="1.0" xmlns="http://www.w3.org/2000/svg"
 width="300.000000pt" height="300.000000pt" viewBox="0 0 300.000000 300.000000"
 preserveAspectRatio="xMidYMid meet">

<g transform="translate(0.000000,300.000000) scale(0.100000,-0.100000)"
fill="#000000" stroke="none">
<path d="M835 2536 l-650 -363 -3 -35 -3 -35 661 -367 660 -367 586 326 c321
179 591 328 600 332 13 5 14 -15 12 -142 l-3 -147 -598 -334 -597 -335 -632
354 -632 354 -28 -16 -28 -16 2 -248 3 -248 658 -364 657 -365 595 330 c328
182 598 330 600 330 3 0 5 -65 5 -144 l0 -145 -52 -29 c-29 -17 -299 -168
-600 -336 l-548 -306 -432 242 c-238 133 -523 292 -632 353 -199 112 -199 112
-228 96 -24 -13 -28 -21 -26 -51 l3 -35 650 -362 c358 -199 657 -361 666 -360
10 1 310 164 668 362 l651 360 -3 248 -2 248 -26 16 c-25 15 -37 8 -653 -336
-345 -194 -634 -351 -641 -349 -8 2 -280 152 -604 333 l-591 330 0 147 0 147
33 -18 c229 -133 1163 -641 1173 -639 7 2 306 165 663 363 l651 360 -3 245 -2
244 -26 15 c-25 14 -43 5 -649 -335 -343 -192 -629 -350 -635 -352 -9 -2
-1128 618 -1147 636 -4 4 252 150 568 326 l574 319 462 -257 463 -257 37 17
c31 14 38 22 38 45 0 26 -28 43 -496 303 -273 152 -501 276 -508 275 -6 0
-303 -164 -661 -363z"/>
</g>
</svg>
